<?xml version="1.0" encoding="UTF-8" standalone="no"?>
<!-- Generator: Adobe Illustrator 19.1.0, SVG Export Plug-In . SVG Version: 6.00 Build 0)  -->

<svg
   xmlns:dc="http://purl.org/dc/elements/1.1/"
   xmlns:cc="http://creativecommons.org/ns#"
   xmlns:rdf="http://www.w3.org/1999/02/22-rdf-syntax-ns#"
   xmlns:svg="http://www.w3.org/2000/svg"
   xmlns="http://www.w3.org/2000/svg"
   xmlns:sodipodi="http://sodipodi.sourceforge.net/DTD/sodipodi-0.dtd"
   xmlns:inkscape="http://www.inkscape.org/namespaces/inkscape"
   version="1.1"
   id="Layer_1"
   x="0px"
   y="0px"
   width="161px"
   height="34px"
   viewBox="0 0 161 34"
   enable-background="new 0 0 161 34"
   xml:space="preserve"
   sodipodi:docname="deployremotebutton.svg"
   inkscape:version="0.92.3 (2405546, 2018-03-11)"><metadata
   id="metadata3789"><rdf:RDF><cc:Work
       rdf:about=""><dc:format>image/svg+xml</dc:format><dc:type
         rdf:resource="http://purl.org/dc/dcmitype/StillImage" /><dc:title /></cc:Work></rdf:RDF></metadata><defs
   id="defs3787" /><sodipodi:namedview
   pagecolor="#ffffff"
   bordercolor="#666666"
   borderopacity="1"
   objecttolerance="10"
   gridtolerance="10"
   guidetolerance="10"
   inkscape:pageopacity="0"
   inkscape:pageshadow="2"
   inkscape:window-width="1920"
   inkscape:window-height="1001"
   id="namedview3785"
   showgrid="false"
   inkscape:zoom="10.931677"
   inkscape:cx="196.77192"
   inkscape:cy="17"
   inkscape:window-x="-9"
   inkscape:window-y="-9"
   inkscape:window-maximized="1"
   inkscape:current-layer="Layer_1" />
<path
   d="M 197.5,34 H 3.7500001 C 1.6875001,34 0,32.65 0,31 V 3 C 0,1.35 1.6875001,0 3.7500001,0 H 197.5 c 2.06249,0 3.75,1.35 3.75,3 v 28 c 0,1.65 -1.68751,3 -3.75,3 z"
   id="path3752"
   inkscape:connector-curvature="0"
   style="fill:#5bc0de;stroke-width:1.11803389" />
<path
   d="m 44.941,16.976 c 0,1.522 -0.475,2.74 -1.426,3.653 C 42.566,21.543 41.3,22 39.719,22 h -3.473 v -9.803 h 3.473 c 3.481,0 5.222,1.593 5.222,4.779 z m -2.324,0.027 c 0,-0.916 -0.26,-1.641 -0.779,-2.174 -0.542,-0.556 -1.311,-0.834 -2.304,-0.834 h -1.08 v 6.214 h 1.094 c 0.966,0 1.723,-0.294 2.27,-0.882 0.533,-0.569 0.799,-1.345 0.799,-2.324 z"
   id="path3754"
   inkscape:connector-curvature="0"
   style="fill:#ffffff" />
<path
   d="m 52.639,19.115 h -4.566 c 0.073,1.016 0.713,1.524 1.921,1.524 0.766,0 1.442,-0.183 2.03,-0.547 v 1.559 c -0.647,0.347 -1.488,0.52 -2.522,0.52 -1.144,0 -2.028,-0.319 -2.652,-0.957 -0.61,-0.624 -0.916,-1.493 -0.916,-2.604 0,-1.23 0.378,-2.191 1.135,-2.885 0.651,-0.598 1.44,-0.896 2.365,-0.896 1.062,0 1.875,0.331 2.44,0.991 0.511,0.598 0.766,1.393 0.766,2.386 v 0.909 z m -2.003,-1.326 c 0,-1.002 -0.405,-1.504 -1.217,-1.504 -0.36,0 -0.67,0.154 -0.93,0.465 -0.237,0.283 -0.381,0.629 -0.431,1.039 z"
   id="path3756"
   inkscape:connector-curvature="0"
   style="fill:#ffffff" />
<path
   d="m 61.204,18.302 c 0,1.167 -0.288,2.103 -0.865,2.81 -0.576,0.707 -1.343,1.06 -2.3,1.06 -0.848,0 -1.49,-0.328 -1.928,-0.984 h -0.027 v 4.033 h -2.16 V 15 h 2.16 v 1.053 h 0.027 c 0.524,-0.816 1.273,-1.224 2.249,-1.224 0.957,0 1.684,0.345 2.181,1.032 0.442,0.616 0.663,1.429 0.663,2.441 z m -2.215,0.027 c 0,-1.23 -0.479,-1.846 -1.436,-1.846 -0.438,0 -0.798,0.167 -1.08,0.499 -0.282,0.332 -0.424,0.777 -0.424,1.333 v 0.561 c 0,0.483 0.128,0.878 0.383,1.183 0.255,0.305 0.59,0.458 1.005,0.458 0.497,0 0.88,-0.191 1.148,-0.574 0.268,-0.383 0.404,-0.922 0.404,-1.614 z"
   id="path3758"
   inkscape:connector-curvature="0"
   style="fill:#ffffff" />
<path
   d="m 64.766,22 h -2.16 V 11.637 h 2.16 z"
   id="path3760"
   inkscape:connector-curvature="0"
   style="fill:#ffffff" />
<path
   d="m 73.741,18.404 c 0,1.148 -0.335,2.061 -1.005,2.734 -0.684,0.688 -1.622,1.032 -2.816,1.032 -1.171,0 -2.09,-0.327 -2.755,-0.981 -0.665,-0.653 -0.998,-1.541 -0.998,-2.662 0,-1.18 0.36,-2.099 1.08,-2.755 0.684,-0.629 1.606,-0.943 2.769,-0.943 1.203,0 2.14,0.351 2.81,1.053 0.61,0.647 0.915,1.487 0.915,2.522 z m -2.201,0.041 c 0,-1.309 -0.521,-1.962 -1.565,-1.962 -0.497,0 -0.887,0.169 -1.169,0.506 -0.296,0.351 -0.444,0.854 -0.444,1.511 0,1.344 0.542,2.017 1.627,2.017 1.033,0 1.551,-0.691 1.551,-2.072 z"
   id="path3762"
   inkscape:connector-curvature="0"
   style="fill:#ffffff" />
<path
   d="m 81.801,15 -2.844,7.561 c -0.684,1.818 -1.714,2.728 -3.09,2.728 -0.501,0 -0.932,-0.06 -1.292,-0.178 v -1.723 c 0.287,0.169 0.6,0.253 0.937,0.253 0.556,0 0.943,-0.262 1.162,-0.786 L 77.043,21.987 74.199,15 h 2.393 l 1.306,4.259 c 0.087,0.287 0.15,0.599 0.191,0.937 h 0.027 c 0.046,-0.273 0.121,-0.581 0.226,-0.923 L 79.661,15 Z"
   id="path3764"
   inkscape:connector-curvature="0"
   style="fill:#ffffff" />
<path
   d="m 156.61734,22.023477 c -0.265,0.15 -0.615,0.226 -1.053,0.226 -1.222,0 -1.832,-0.688 -1.832,-2.064 v -4.144 h -1.203 v -0.95 h 1.203 v -1.709 c 0.355,-0.113 0.729,-0.234 1.121,-0.362 v 2.071 h 1.764 v 0.95 h -1.764 v 3.951 c 0,0.47 0.08,0.804 0.239,1.001 0.159,0.199 0.426,0.298 0.8,0.298 0.278,0 0.52,-0.075 0.725,-0.226 z"
   id="path3766"
   inkscape:connector-curvature="0"
   style="fill:#ffffff" />
<path
   d="m 163.831,18.473 c 0,1.117 -0.314,2.012 -0.943,2.687 -0.629,0.675 -1.477,1.012 -2.543,1.012 -1.053,0 -1.887,-0.337 -2.502,-1.012 -0.602,-0.651 -0.902,-1.511 -0.902,-2.577 0,-1.217 0.342,-2.158 1.025,-2.823 0.634,-0.62 1.481,-0.93 2.543,-0.93 1.044,0 1.858,0.323 2.443,0.971 0.586,0.646 0.879,1.537 0.879,2.672 z m -1.148,0.041 c 0,-0.898 -0.203,-1.582 -0.608,-2.051 -0.392,-0.451 -0.941,-0.677 -1.647,-0.677 -0.697,0 -1.256,0.228 -1.675,0.684 -0.442,0.487 -0.663,1.179 -0.663,2.071 0,0.838 0.212,1.494 0.636,1.965 0.424,0.473 0.991,0.708 1.702,0.708 0.738,0 1.301,-0.239 1.688,-0.718 0.377,-0.465 0.567,-1.125 0.567,-1.982 z"
   id="path3768"
   inkscape:connector-curvature="0"
   style="fill:#ffffff" />
<path
   d="m 175.141,22 h -1.271 l -1.032,-2.741 h -4.163 L 167.696,22 h -1.271 l 3.746,-9.803 h 1.189 z m -2.687,-3.78 -1.538,-4.17 c -0.041,-0.114 -0.094,-0.335 -0.157,-0.663 h -0.027 c -0.041,0.277 -0.091,0.499 -0.15,0.663 l -1.524,4.17 z"
   id="path3770"
   inkscape:connector-curvature="0"
   style="fill:#ffffff" />
<path
   d="m 181.32,15.321 -4.149,5.729 h 4.102 V 22 h -5.749 v -0.349 l 4.143,-5.701 h -3.753 V 15 h 5.407 v 0.321 z"
   id="path3772"
   inkscape:connector-curvature="0"
   style="fill:#ffffff" />
<path
   d="m 188.416,22 h -1.121 v -1.107 h -0.027 c -0.465,0.852 -1.183,1.278 -2.153,1.278 -1.673,0 -2.509,-0.995 -2.509,-2.987 V 15 h 1.121 v 4.006 c 0,1.473 0.565,2.208 1.695,2.208 0.542,0 0.99,-0.197 1.343,-0.591 0.354,-0.395 0.53,-0.924 0.53,-1.59 V 15 h 1.121 z"
   id="path3774"
   inkscape:connector-curvature="0"
   style="fill:#ffffff" />
<path
   d="m 194.336,16.135 c -0.196,-0.15 -0.48,-0.226 -0.854,-0.226 -0.456,0 -0.839,0.205 -1.148,0.615 -0.351,0.46 -0.526,1.097 -0.526,1.907 V 22 h -1.121 v -7 h 1.121 v 1.442 h 0.027 c 0.164,-0.511 0.417,-0.905 0.759,-1.183 0.319,-0.256 0.677,-0.383 1.073,-0.383 0.296,0 0.52,0.031 0.67,0.096 v 1.163 z"
   id="path3776"
   inkscape:connector-curvature="0"
   style="fill:#ffffff" />
<path
   d="m 200.946,18.78 h -4.942 c 0.019,0.784 0.228,1.386 0.629,1.805 0.401,0.419 0.952,0.629 1.654,0.629 0.788,0 1.511,-0.255 2.167,-0.766 v 1.046 c -0.61,0.451 -1.422,0.677 -2.434,0.677 -0.957,0 -1.716,-0.301 -2.276,-0.902 -0.602,-0.638 -0.902,-1.552 -0.902,-2.741 0,-1.125 0.326,-2.035 0.978,-2.728 0.61,-0.647 1.358,-0.971 2.242,-0.971 0.948,0 1.673,0.317 2.174,0.95 0.474,0.592 0.711,1.396 0.711,2.413 v 0.588 z m -1.148,-0.95 c -0.009,-0.639 -0.159,-1.135 -0.451,-1.49 -0.306,-0.369 -0.738,-0.554 -1.299,-0.554 -0.528,0 -0.978,0.188 -1.347,0.563 -0.369,0.377 -0.597,0.869 -0.684,1.48 h 3.781 z"
   id="path3778"
   inkscape:connector-curvature="0"
   style="fill:#ffffff" />
<path
   d="m 21,18.4 c -0.8,0 -1.5,0.5 -1.9,1.2 H 7.3 v 0 c -2,0 -3.6,-1.6 -3.6,-3.6 0,-2 1.6,-3.6 3.6,-3.6 v 0 0 0 H 9 c 0.1,-0.4 0.2,-0.8 0.4,-1.2 0,-0.2 0.1,-0.4 0.1,-0.5 0.8,-1.5 2.4,-2.4 4.2,-2.4 1.6,0 3,0.8 3.9,2 0.5,-0.2 1,-0.4 1.6,-0.5 C 18.1,8 16,6.7 13.7,6.7 c -2.7,0 -5,1.7 -6,4.1 v 0 0 0 H 7.3 C 4.4,10.7 2,13.1 2,16 c 0,2.9 2.4,5.3 5.3,5.3 h 11.9 c 0.3,0.7 1,1.2 1.9,1.2 1.1,0 2,-0.9 2,-2 0,-1.2 -0.9,-2.1 -2.1,-2.1 z"
   id="path3780"
   inkscape:connector-curvature="0"
   style="fill:#ffffff" />
<path
   d="M 27.6,14.4 C 26.4,12 23.9,10.3 21,10.3 c -3.5,0 -6.4,2.4 -7.1,5.7 -1.7,0.2 -3.2,1.1 -4.1,2.4 h 8.7 c 0.6,-0.7 1.5,-1.2 2.5,-1.2 1.8,0 3.2,1.5 3.2,3.2 0,1.8 -1.5,3.2 -3.2,3.2 -1,0 -1.9,-0.5 -2.5,-1.2 H 8.9 c 0.4,2.8 2.8,4.9 5.6,4.9 v 0 0 h 13 v 0 0 c 3.6,0 6.5,-2.9 6.5,-6.5 0,-3.5 -2.9,-6.4 -6.4,-6.4 z"
   id="path3782"
   inkscape:connector-curvature="0"
   style="fill:#ffffff" />
<text
   xml:space="preserve"
   style="font-style:normal;font-weight:normal;font-size:40px;line-height:1.25;font-family:sans-serif;letter-spacing:0px;word-spacing:0px;fill:#000000;fill-opacity:1;stroke:none"
   x="97.789207"
   y="23.480114"
   id="text3797"><tspan
     sodipodi:role="line"
     id="tspan3795"
     x="97.789207"
     y="59.973328" /></text>

<text
   xml:space="preserve"
   style="font-style:normal;font-variant:normal;font-weight:normal;font-stretch:normal;font-size:13.33333333px;line-height:1.25;font-family:Arial;-inkscape-font-specification:'Arial, Normal';font-variant-ligatures:normal;font-variant-caps:normal;font-variant-numeric:normal;font-feature-settings:normal;text-align:start;letter-spacing:0px;word-spacing:0px;writing-mode:lr;text-anchor:start;fill:#000000;fill-opacity:1;stroke:none;"
   x="84.553978"
   y="22.290909"
   id="text3801"><tspan
     sodipodi:role="line"
     id="tspan34">Participant</tspan></text>

</svg>